<svg width="30" height="30" viewBox="0 0 30 30" fill="none" xmlns="http://www.w3.org/2000/svg">
<path d="M27.3633 4.72363H2.63672C1.18283 4.72363 0 5.90647 0 7.36035V22.6405C0 24.0944 1.18283 25.2773 2.63672 25.2773H27.3633C28.8172 25.2773 30 24.0944 30 22.6405V7.36035C30 5.90647 28.8172 4.72363 27.3633 4.72363ZM27.0192 6.48145L26.6672 6.77447L16.0461 15.6187C15.4399 16.1234 14.56 16.1234 13.9539 15.6187L3.33275 6.77447L2.98084 6.48145H27.0192ZM1.75781 7.75047L10.4116 14.9565L1.75781 20.7159V7.75047ZM27.3633 23.5195H2.63672C2.21203 23.5195 1.85684 23.2166 1.77545 22.8157L11.8211 16.1301L12.8291 16.9695C13.458 17.4932 14.2291 17.7551 15.0001 17.7551C15.771 17.7551 16.542 17.4932 17.171 16.9695L18.1791 16.1301L28.2246 22.8156C28.1432 23.2167 27.788 23.5195 27.3633 23.5195ZM28.2422 20.7159L19.5884 14.9566L28.2422 7.75047V20.7159Z" fill="#C80807"/>
</svg>
