<svg width="30" height="30" viewBox="0 0 30 30" fill="none" xmlns="http://www.w3.org/2000/svg">
<path d="M28.3334 20.8334C26.2584 20.8334 24.25 20.5 22.3834 19.8834C21.8084 19.7 21.15 19.8334 20.6917 20.2917L17.0251 23.9667C12.3001 21.5667 8.44172 17.7084 6.04172 12.9917L9.70836 9.30836C10.1667 8.85 10.3 8.19172 10.1167 7.61672C9.50008 5.75008 9.16672 3.74172 9.16672 1.66672C9.16664 0.741641 8.425 0 7.5 0H1.66664C0.75 0 0 0.741641 0 1.66664C0 17.3166 12.6834 30 28.3334 30C29.2584 30 30 29.2584 30 28.3334V22.5C30 21.575 29.2584 20.8334 28.3334 20.8334Z" fill="#C80807"/>
</svg>
